# xmcd CD database file
#
# Track frame offsets:
#	150
#	16857
#	30792
#	46137
#	59497
#	72965
#	87837
#	103471
#	119039
#	135234
#
# Disc length: 2076 seconds
#
# Revision: 0
# Processed by: cddbd v1.5.1PL0 Copyright (c) Steve Scherf et al.
# Submitted via: CDex 1.51
#
DISCID=7f081a0a
DTITLE=Deon Taylor - Deon Taylor
DYEAR=2005
DGENRE=Country
TTITLE0=Nothin' But A Heartache
TTITLE1=Get Real
TTITLE2=Only Better
TTITLE3=Light After Dark
TTITLE4=Above My Expectations
TTITLE5=Bring It On
TTITLE6=Tryin' Not To Love You
TTITLE7=I Remembered
TTITLE8=Waterfall
TTITLE9=Lovin' And Lettin' Go
EXTD=YEAR: 2005
EXTT0=
EXTT1=
EXTT2=
EXTT3=
EXTT4=
EXTT5=
EXTT6=
EXTT7=
EXTT8=
EXTT9=
PLAYORDER=
